HIERARCHY
ROOT Hips
{
	OFFSET 0.000000 1.471914 24.280096
	CHANNELS 6 Xposition Yposition Zposition Xrotation Yrotation Zrotation
	JOINT Spine
	{
		OFFSET 0.000000 0.900110 1.860670
		CHANNELS 6 Xposition Yposition Zposition Xrotation Yrotation Zrotation
		JOINT Spine1
		{
			OFFSET 0.000000 0.400320 2.270309
			CHANNELS 6 Xposition Yposition Zposition Xrotation Yrotation Zrotation
			JOINT Spine2
			{
				OFFSET 0.000000 0.200920 2.296560
				CHANNELS 6 Xposition Yposition Zposition Xrotation Yrotation Zrotation
				JOINT Spine3
				{
					OFFSET 0.000000 0.000000 2.305330
					CHANNELS 6 Xposition Yposition Zposition Xrotation Yrotation Zrotation
					JOINT Neck
					{
						OFFSET 0.000000 -0.864490 6.051487
						CHANNELS 6 Xposition Yposition Zposition Xrotation Yrotation Zrotation
						JOINT Head
						{
							OFFSET 0.000000 -0.550429 3.121674
							CHANNELS 6 Xposition Yposition Zposition Xrotation Yrotation Zrotation
							End Site
							{
								OFFSET 0.000000 0.000000 3.731750
							}
						}
					}
					JOINT RightShoulder
					{
						OFFSET -0.788280 -1.313800 4.256718
						CHANNELS 6 Xposition Yposition Zposition Xrotation Yrotation Zrotation
						JOINT RightArm
						{
							OFFSET -3.915130 0.000000 0.000000
							CHANNELS 6 Xposition Yposition Zposition Xrotation Yrotation Zrotation
							JOINT RightForeArm
							{
								OFFSET -6.914910 0.000000 0.000000
								CHANNELS 6 Xposition Yposition Zposition Xrotation Yrotation Zrotation
								JOINT RightHand
								{
									OFFSET -6.096219 0.000000 0.000000
									CHANNELS 6 Xposition Yposition Zposition Xrotation Yrotation Zrotation
									JOINT RightHandEnd
									{
										OFFSET -1.749950 0.000000 0.000000
										CHANNELS 6 Xposition Yposition Zposition Xrotation Yrotation Zrotation
										End Site
										{
											OFFSET -1.749950 0.000000 0.000000
										}
									}
									JOINT RightHandThumb1
									{
										OFFSET -0.699980 -1.166630 -0.466648
										CHANNELS 6 Xposition Yposition Zposition Xrotation Yrotation Zrotation
										End Site
										{
											OFFSET -1.690319 -0.452920 0.000000
										}
									}
								}
							}
						}
					}
					JOINT LeftShoulder
					{
						OFFSET 0.788280 -1.313800 4.256718
						CHANNELS 6 Xposition Yposition Zposition Xrotation Yrotation Zrotation
						JOINT LeftArm
						{
							OFFSET 3.915130 0.000000 0.000000
							CHANNELS 6 Xposition Yposition Zposition Xrotation Yrotation Zrotation
							JOINT LeftForeArm
							{
								OFFSET 6.914910 0.000000 0.000000
								CHANNELS 6 Xposition Yposition Zposition Xrotation Yrotation Zrotation
								JOINT LeftHand
								{
									OFFSET 6.096219 0.000000 0.000000
									CHANNELS 6 Xposition Yposition Zposition Xrotation Yrotation Zrotation
									JOINT LeftHandEnd
									{
										OFFSET 1.749950 0.000000 0.000000
										CHANNELS 6 Xposition Yposition Zposition Xrotation Yrotation Zrotation
										End Site
										{
											OFFSET 1.749950 0.000000 0.000000
										}
									}
									JOINT LeftHandThumb1
									{
										OFFSET 0.699980 -1.166630 -0.466648
										CHANNELS 6 Xposition Yposition Zposition Xrotation Yrotation Zrotation
										End Site
										{
											OFFSET 1.690319 -0.452920 0.000000
										}
									}
								}
							}
						}
					}
				}
			}
		}
	}
	JOINT RightUpLeg
	{
		OFFSET -2.338570 -0.252550 -0.551512
		CHANNELS 6 Xposition Yposition Zposition Xrotation Yrotation Zrotation
		JOINT RightLeg
		{
			OFFSET 0.000000 0.000000 -10.744959
			CHANNELS 6 Xposition Yposition Zposition Xrotation Yrotation Zrotation
			JOINT RightFoot
			{
				OFFSET 0.000000 -0.000001 -10.930849
				CHANNELS 6 Xposition Yposition Zposition Xrotation Yrotation Zrotation
				JOINT RightToeBase
				{
					OFFSET 0.000000 -4.087269 -1.487650
					CHANNELS 6 Xposition Yposition Zposition Xrotation Yrotation Zrotation
					End Site
					{
						OFFSET 0.000000 -1.891870 0.000000
					}
				}
			}
		}
	}
	JOINT LeftUpLeg
	{
		OFFSET 2.338570 -0.252550 -0.551512
		CHANNELS 6 Xposition Yposition Zposition Xrotation Yrotation Zrotation
		JOINT LeftLeg
		{
			OFFSET 0.000000 0.000000 -10.744959
			CHANNELS 6 Xposition Yposition Zposition Xrotation Yrotation Zrotation
			JOINT LeftFoot
			{
				OFFSET 0.000000 -0.000001 -10.930849
				CHANNELS 6 Xposition Yposition Zposition Xrotation Yrotation Zrotation
				JOINT LeftToeBase
				{
					OFFSET 0.000000 -4.087269 -1.487650
					CHANNELS 6 Xposition Yposition Zposition Xrotation Yrotation Zrotation
					End Site
					{
						OFFSET 0.000000 -1.891870 0.000000
					}
				}
			}
		}
	}
}
MOTION
Frames: 4
Frame Time: 0.041667
-0.000004 26.660685 39.990898 -6.774525 1.681108 -21.624710 -0.000001 0.900088 1.860667 19.559411 4.619477 -1.459748 -0.000017 0.400278 2.270282 0.000007 0.000001 0.000014 0.000015 0.200871 2.296547 -0.000004 -0.000002 0.000004 0.000022 0.000016 2.305324 -0.000033 0.000001 0.688374 -0.000025 -0.864454 6.051381 5.343243 -7.336938 -179.699217 0.000046 -0.550408 3.121670 -0.000010 -0.000000 -0.000010 -0.788275 -1.313734 4.256854 -121.683071 46.723705 -56.604247 -3.915146 -0.000034 -0.000024 0.000001 -0.000008 0.000003 -6.914845 -0.000005 0.000032 -0.000028 0.000002 -74.771693 -6.096178 0.000014 0.000031 -0.000083 -0.000099 -0.000080 -1.749900 -0.000008 0.000024 -0.000000 0.000001 0.000003 -0.699963 -1.166612 -0.466657 -0.000028 -0.000004 -0.000034 0.788252 -1.313776 4.256779 -133.599839 -58.241187 42.669875 3.915248 -0.000013 -0.000031 -0.000003 0.000001 -0.000000 6.914924 -0.000070 0.000013 0.000017 -0.000004 25.624104 6.096270 0.000161 -0.000031 -0.000068 0.000107 0.000065 1.750008 0.000013 0.000056 -0.000007 -0.000006 -0.000001 0.699996 -1.166576 -0.466637 0.000041 -0.000007 -0.000041 -2.338593 -0.252535 -0.551449 17.616378 2.655349 -1.314609 0.000017 -0.000008 -10.744944 11.283402 0.299702 -0.290430 -0.000030 0.000080 -10.930847 0.000068 0.000004 -0.000003 -0.000031 -4.087244 -1.487618 0.000000 0.000000 -0.000001 2.338594 -0.252534 -0.551492 13.832644 -0.229630 -1.049651 -0.000028 -0.000005 -10.744925 10.458178 1.509702 -0.814662 0.000005 -0.000020 -10.930861 0.000015 0.000000 -0.000003 -0.000058 -4.087210 -1.487649 -0.000002 0.000001 -0.000008 
0.000006 26.660675 39.990898 -6.717687 1.550575 -21.074040 -0.000001 0.900091 1.860668 19.323565 4.083286 -1.503113 -0.000018 0.400281 2.270288 0.000009 0.000001 0.000016 0.000013 0.200875 2.296551 -0.000002 -0.000002 -0.000001 0.000020 0.000014 2.305320 -0.000032 -0.000003 0.827554 -0.000025 -0.864450 6.051381 5.313691 -6.888755 -180.470305 0.000046 -0.550410 3.121662 -0.000006 -0.000000 -0.000011 -0.788275 -1.313728 4.256849 -120.445345 45.822547 -57.528388 -3.915148 -0.000031 -0.000020 -0.000000 -0.000009 0.000003 -6.914849 -0.000003 0.000037 -0.000021 0.000010 -71.684065 -6.096180 0.000012 0.000038 -0.000082 -0.000096 -0.000078 -1.749905 -0.000007 0.000028 -0.000000 0.000002 -0.000003 -0.699970 -1.166615 -0.466648 -0.000029 -0.000006 -0.000032 0.788253 -1.313771 4.256773 -134.007656 -58.403534 42.402672 3.915249 -0.000015 -0.000034 0.000000 0.000003 -0.000001 6.914924 -0.000071 0.000014 0.000016 -0.000006 25.235030 6.096272 0.000163 -0.000033 -0.000064 0.000107 0.000063 1.750000 0.000019 0.000058 -0.000009 -0.000003 0.000000 0.699987 -1.166570 -0.466644 0.000042 -0.000007 -0.000039 -2.338592 -0.252534 -0.551452 17.605765 2.973675 -1.368985 0.000018 -0.000000 -10.744940 11.764247 0.298990 -0.273303 -0.000030 0.000076 -10.930846 0.000061 0.000006 -0.000003 -0.000031 -4.087239 -1.487615 0.000003 0.000002 0.000003 2.338594 -0.252530 -0.551487 13.533845 -0.414926 -1.070667 -0.000028 -0.000007 -10.744927 10.755499 1.186167 -0.906817 0.000006 -0.000022 -10.930861 0.000020 0.000002 -0.000007 -0.000057 -4.087208 -1.487651 -0.000000 -0.000000 -0.000006 
0.000011 26.660675 39.990902 -6.552705 1.230639 -20.299143 0.000001 0.900092 1.860670 19.276423 3.473560 -1.583419 -0.000018 0.400283 2.270290 0.000007 0.000001 0.000013 0.000014 0.200877 2.296547 -0.000002 -0.000003 -0.000001 0.000021 0.000011 2.305328 -0.000032 0.000002 1.219898 -0.000024 -0.864452 6.051379 5.458714 -6.338739 -180.929252 0.000046 -0.550406 3.121677 -0.000008 0.000001 -0.000012 -0.788275 -1.313731 4.256850 -119.134031 45.446351 -59.025784 -3.915151 -0.000033 -0.000023 0.000003 -0.000009 0.000003 -6.914849 -0.000003 0.000028 -0.000014 0.000017 -67.974275 -6.096179 0.000012 0.000034 -0.000082 -0.000092 -0.000076 -1.749905 -0.000014 0.000031 0.000001 -0.000000 -0.000003 -0.699964 -1.166616 -0.466649 -0.000028 -0.000006 -0.000036 0.788253 -1.313776 4.256766 -133.084078 -58.521751 43.623489 3.915246 -0.000013 -0.000031 -0.000004 0.000004 0.000000 6.914927 -0.000071 0.000011 0.000019 -0.000005 25.087012 6.096274 0.000161 -0.000032 -0.000069 0.000108 0.000066 1.750004 0.000015 0.000055 -0.000009 -0.000005 -0.000001 0.699993 -1.166574 -0.466640 0.000039 -0.000010 -0.000038 -2.338592 -0.252532 -0.551453 17.335993 3.228605 -1.424065 0.000018 -0.000005 -10.744945 12.483704 0.161049 -0.288429 -0.000030 0.000072 -10.930849 0.000061 0.000003 -0.000004 -0.000029 -4.087243 -1.487618 0.000005 0.000002 -0.000001 2.338595 -0.252531 -0.551483 13.061798 -0.263596 -1.091573 -0.000027 -0.000008 -10.744927 10.818015 1.349778 -0.931599 0.000006 -0.000017 -10.930865 0.000014 -0.000000 -0.000006 -0.000055 -4.087207 -1.487651 0.000002 -0.000000 -0.000005 
0.000011 26.660673 39.990894 -6.480362 1.158770 -19.895827 -0.000002 0.900094 1.860669 19.304992 2.706366 -1.616820 -0.000017 0.400277 2.270290 0.000007 0.000001 0.000014 0.000013 0.200877 2.296553 -0.000001 -0.000002 0.000001 0.000021 0.000015 2.305324 -0.000030 -0.000001 1.323073 -0.000024 -0.864446 6.051373 5.361020 -5.888887 -180.806295 0.000046 -0.550405 3.121666 -0.000007 -0.000001 -0.000009 -0.788276 -1.313725 4.256845 -118.522688 45.615381 -59.692220 -3.915149 -0.000038 -0.000024 0.000001 -0.000007 0.000002 -6.914850 -0.000006 0.000027 -0.000010 0.000028 -62.573098 -6.096172 0.000009 0.000034 -0.000079 -0.000096 -0.000079 -1.749902 -0.000014 0.000031 0.000002 -0.000002 0.000000 -0.699963 -1.166617 -0.466650 -0.000028 -0.000007 -0.000038 0.788254 -1.313769 4.256768 -131.573581 -58.484150 45.313855 3.915246 -0.000017 -0.000031 0.000002 0.000004 0.000004 6.914927 -0.000069 0.000018 0.000016 -0.000011 24.290499 6.096272 0.000163 -0.000032 -0.000066 0.000106 0.000066 1.750007 0.000017 0.000051 -0.000007 -0.000007 -0.000001 0.699997 -1.166572 -0.466645 0.000042 -0.000010 -0.000041 -2.338593 -0.252531 -0.551445 17.221523 3.402152 -1.442291 0.000018 -0.000006 -10.744945 13.301286 0.067359 -0.288051 -0.000029 0.000071 -10.930845 0.000061 0.000003 -0.000002 -0.000030 -4.087245 -1.487617 0.000002 0.000001 0.000003 2.338593 -0.252527 -0.551481 12.967922 0.007800 -1.104279 -0.000028 -0.000007 -10.744932 10.714260 1.292446 -0.889405 0.000006 -0.000022 -10.930861 0.000015 -0.000000 -0.000006 -0.000055 -4.087211 -1.487650 0.000001 -0.000002 -0.000008 
